<svg width="480" height="480" viewBox="0 0 480 480" fill="none" xmlns="http://www.w3.org/2000/svg">
<rect width="480" height="480" fill="#272521"/>
<path d="M59.3281 286.533V197.817H91.8879C109.156 197.817 121.416 209.285 121.416 225.236C121.416 240.923 109.288 251.468 91.8879 251.468H72.7739V286.533H59.3281ZM72.7739 238.813H90.5697C101.511 238.813 107.838 233.804 107.838 224.84C107.838 215.613 101.643 210.472 90.5697 210.472H72.7739V238.813Z" fill="white"/>
<path d="M139.622 221.413L135.931 239.341L138.172 240.132C140.281 229.059 148.19 220.886 159.395 220.886C171.259 220.886 180.486 231.431 180.486 244.745V286.533H166.909V246.195C166.909 238.022 161.504 232.486 153.595 232.486C145.422 232.486 139.622 238.286 139.622 246.459V286.533H126.176V193.467H139.622V221.413Z" fill="white"/>
<path d="M199.205 267.419C199.205 272.296 203.291 275.196 210.146 275.196C220.032 275.196 226.887 269.132 226.887 260.3V257.664L209.223 259.114C203.027 259.641 199.205 262.805 199.205 267.419ZM240.465 286.533H228.205L230.578 268.605L228.601 268.341C226.096 279.678 217.528 286.533 206.059 286.533C194.195 286.533 186.023 279.151 186.023 268.341C186.023 258.191 193.141 251.336 205.005 250.282L226.887 248.305V243.954C226.887 237.232 221.614 232.618 213.705 232.618C205.796 232.618 200.127 237.363 199.337 244.745L186.023 242.768C188.132 229.454 199.073 220.886 213.837 220.886C229.128 220.886 240.465 230.113 240.465 242.504V286.533Z" fill="white"/>
<path d="M304.708 243.954L291.921 245.932C289.417 237.363 283.88 232.354 276.103 232.354C265.821 232.354 259.625 239.868 259.625 253.446C259.625 267.287 265.821 274.669 276.103 274.669C284.276 274.669 290.471 269.396 292.185 259.905L305.235 261.882C302.071 277.964 290.339 286.533 276.103 286.533C258.175 286.533 246.048 274.801 246.048 253.446C246.048 232.354 258.175 220.622 276.103 220.622C289.021 220.622 300.094 228.795 304.708 243.954Z" fill="white"/>
<path d="M321.97 257.268C322.761 268.473 328.957 274.669 339.239 274.669C347.28 274.669 352.948 270.451 354.398 263.2L367.449 265.309C364.285 278.623 353.607 286.533 339.239 286.533C319.861 286.533 308.261 274.142 308.261 253.446C308.261 233.145 319.334 220.622 337.789 220.622C356.507 220.622 367.449 233.936 367.449 252.655V257.268H321.97ZM322.234 247.777H353.739C353.739 238.945 346.884 232.354 337.789 232.354C328.825 232.354 323.42 238.022 322.234 247.777Z" fill="white"/>
<path d="M391.223 234.727V262.937C391.223 271.769 392.541 272.56 399.791 272.56H406.382V286.533H396.1C385.027 286.533 377.777 280.073 377.777 264.387V234.727H366.572V223.39H377.777V205.594L391.223 204.144V223.39H406.382V234.727H391.223Z" fill="white"/>
<path d="M418.329 197.818H420.673V209.107H418.329V197.818Z" fill="white"/>
<path d="M413.788 206.786H409.629L408.848 209.107H406.382L410.41 197.818H413.076L417.073 209.107H414.515L413.788 206.786ZM413.129 204.841L411.72 200.399L410.265 204.841H413.129Z" fill="white"/>
</svg>
